HIERARCHY
ROOT Hips
{
	OFFSET -3.958830 18.904000 13.208200
	CHANNELS 6 Xposition Yposition Zposition Zrotation Yrotation Xrotation 
	JOINT LHipJoint
	{
		OFFSET 0.000000 0.000000 0.000000
		CHANNELS 3 Zrotation Yrotation Xrotation
		JOINT LeftUpLeg
		{
			OFFSET 1.800000 -1.400000 0.085000
			CHANNELS 3 Zrotation Yrotation Xrotation
			JOINT LeftLeg
			{
				OFFSET 2.215000 -6.000000 0.000000
				CHANNELS 3 Zrotation Yrotation Xrotation
				JOINT LeftFoot
				{
					OFFSET 2.500000 -6.900000 0.000000
					CHANNELS 3 Zrotation Yrotation Xrotation
					JOINT LeftToeBase
					{
						OFFSET 0.200000 -0.500000 1.950000
						CHANNELS 3 Zrotation Yrotation Xrotation
						End Site
						{
							OFFSET 0.000000 0.000000 0.000000
						}
					}
				}
			}
		}
	}
	JOINT RHipJoint
	{
		OFFSET 0.000000 0.000000 0.000000
		CHANNELS 3 Zrotation Yrotation Xrotation
		JOINT RightUpLeg
		{
			OFFSET -1.800000 -1.400000 0.085000
			CHANNELS 3 Zrotation Yrotation Xrotation
			JOINT RightLeg
			{
				OFFSET -2.215000 -6.000000 0.000000
				CHANNELS 3 Zrotation Yrotation Xrotation
				JOINT RightFoot
				{
					OFFSET -2.500000 -6.900000 0.000000
					CHANNELS 3 Zrotation Yrotation Xrotation
					JOINT RightToeBase
					{
						OFFSET -0.200000 -0.500000 1.950000
						CHANNELS 3 Zrotation Yrotation Xrotation
						End Site
						{
							OFFSET 0.000000 0.000000 0.000000
						}
					}
				}
			}
		}
	}
	JOINT LowerBack
	{
		OFFSET 0.000000 0.000000 0.000000
		CHANNELS 3 Zrotation Yrotation Xrotation
		JOINT Spine
		{
			OFFSET -0.087000 1.940000 -0.288900
			CHANNELS 3 Zrotation Yrotation Xrotation
			JOINT Spine1
			{
				OFFSET 0.000000 1.950000 0.060000
				CHANNELS 3 Zrotation Yrotation Xrotation
				JOINT Neck
				{
					OFFSET 0.000000 0.000000 0.000000
					CHANNELS 3 Zrotation Yrotation Xrotation
					JOINT Neck1
					{
						OFFSET 0.000000 1.600000 0.340000
						CHANNELS 3 Zrotation Yrotation Xrotation
						JOINT Head
						{
							OFFSET 0.000000 1.667000 -0.240000
							CHANNELS 3 Zrotation Yrotation Xrotation
							End Site
							{
								OFFSET 0.000000 0.000000 0.000000
							}
						}
					}
				}
				JOINT LeftShoulder
				{
					OFFSET 0.000000 0.000000 0.000000
					CHANNELS 3 Zrotation Yrotation Xrotation
					JOINT LeftArm
					{
						OFFSET 2.700000 1.550000 -0.730000
						CHANNELS 3 Zrotation Yrotation Xrotation
						JOINT LeftForeArm
						{
							OFFSET 5.450000 0.000000 0.000000
							CHANNELS 3 Zrotation Yrotation Xrotation
							JOINT LeftHand
							{
								OFFSET 3.450000 0.000000 0.000000
								CHANNELS 3 Zrotation Yrotation Xrotation
								JOINT LeftHandIndex1
								{
									OFFSET 0.750000 0.000000 0.000000
									CHANNELS 3 Zrotation Yrotation Xrotation
									End Site
									{
										OFFSET 0.000000 0.000000 0.000000
									}
								}
							}
						}
					}
				}
				JOINT RightShoulder
				{
					OFFSET 0.000000 0.000000 0.000000
					CHANNELS 3 Zrotation Yrotation Xrotation
					JOINT RightArm
					{
						OFFSET -2.700000 1.550000 -0.730000
						CHANNELS 3 Zrotation Yrotation Xrotation
						JOINT RightForeArm
						{
							OFFSET -5.450000 0.000000 0.000000
							CHANNELS 3 Zrotation Yrotation Xrotation
							JOINT RightHand
							{
								OFFSET -3.450000 0.000000 0.000000
								CHANNELS 3 Zrotation Yrotation Xrotation
								JOINT RightHandIndex1
								{
									OFFSET -0.750000 0.000000 0.000000
									CHANNELS 3 Zrotation Yrotation Xrotation
									End Site
									{
										OFFSET 0.000000 0.000000 0.000000
									}
								}
							}
						}
					}
				}
			}
		}
	}
}
MOTION
Frames: 12
Frame Time: 0.016667
-0.434560 17.781160 4.633710 -5.835849 17.243313 -7.126290 -14.957158 12.090859 3.990108 5.401738 -6.130884 -31.154221 -7.266629 13.088067 46.327300 0.033607 9.786113 1.400971 -1.201910 -1.677350 -1.160000 18.614637 -10.529890 3.104682 1.545346 6.839408 -26.216473 -2.384569 -7.851037 51.093516 -0.429277 -7.617753 1.941019 -0.775860 1.492670 -0.003680 -4.723573 -0.407385 -8.411963 17.637194 -0.541675 19.459277 -11.434785 2.255602 -6.252934 -0.097923 -5.065381 -10.738786 -9.967858 0.780300 29.637668 4.507980 -8.149130 13.281880 -8.651440 3.915114 3.006251 -50.981739 7.220562 -9.959711 -34.897593 -37.536693 7.521496 -4.344814 2.643089 0.569010 0.618120 -0.803510 0.010030 7.820873 1.028320 7.484838 70.915862 -10.026289 -19.640191 33.410723 33.532413 4.284403 1.958455 -0.830268 -0.993560 0.728270 1.151360 0.042040 
-0.416930 17.768960 4.662050 -6.072769 18.414077 -8.495336 -14.946839 12.119857 3.905518 5.370718 -6.233403 -30.031683 -6.857311 12.888023 46.836854 0.051196 9.801302 1.390061 -1.164130 -1.624700 -1.149110 18.623092 -10.505738 3.157221 1.724308 6.738632 -26.985562 -0.990224 -8.382525 49.509045 -0.406357 -7.391115 1.999128 -0.756050 1.471380 0.005310 -4.788894 -0.432515 -8.422742 17.621175 -1.493092 19.708132 -12.192682 1.284146 -5.665230 0.003842 -4.752051 -10.794061 -9.745142 1.213456 31.000922 5.346470 -8.169310 12.905750 -9.650554 2.216205 3.207589 -50.489384 5.881032 -9.773138 -33.605360 -38.307630 7.245632 -4.322534 2.657817 0.581920 0.597420 -0.774160 0.025110 8.577699 2.043259 7.457225 71.763336 -8.811199 -19.657394 31.119799 33.834203 3.732936 1.960251 -0.826261 -0.972050 0.721010 1.131320 0.048150 
-0.407190 17.757370 4.700280 -6.007447 20.055706 -11.438100 -14.971361 12.280210 3.786109 5.558415 -6.275216 -27.370116 -6.693761 13.032726 47.977155 0.117501 10.007576 1.324233 -1.118360 -1.558840 -1.096610 18.566738 -10.465860 3.249079 1.283063 6.647525 -28.234300 0.890456 -9.065207 47.628372 -0.398494 -7.089717 2.091987 -0.741130 1.424410 0.010860 -4.733960 -0.636491 -8.516874 16.003603 -2.893375 22.321176 -12.342660 -0.109015 -5.824433 0.244067 -4.162496 -11.121112 -9.378941 1.505002 33.770398 5.781660 -7.819870 10.990630 -10.991594 -0.430966 3.488234 -49.947152 3.764555 -9.349797 -32.374749 -38.925717 6.922981 -4.291328 2.582603 0.644120 0.556130 -0.694620 0.029220 9.503917 3.838072 7.694325 72.497065 -7.293598 -19.771446 29.709676 35.094279 3.549771 1.956112 -0.773381 -0.954610 0.750430 1.100470 0.039440 
-0.402230 17.757380 4.736970 -5.790389 21.049650 -14.651956 -15.001376 12.452919 3.643581 6.294485 -6.047730 -24.252118 -7.256506 13.589406 48.547083 0.193482 10.218488 1.241215 -1.063320 -1.447070 -1.053850 18.513653 -10.374289 3.363106 1.166107 6.779303 -29.962700 1.531950 -8.830372 45.543554 -0.345746 -6.613620 2.246180 -0.694700 1.368450 -0.015600 -4.644295 -0.917156 -8.584801 13.850003 -3.871058 24.436331 -12.022121 -0.976930 -3.952513 0.483758 -3.773797 -11.903426 -9.611427 2.109489 37.051749 6.821180 -7.557450 8.788720 -13.790450 -5.742100 4.331723 -48.963633 0.808074 -9.566313 -28.234979 -40.196626 5.490923 -4.239094 2.490826 0.677030 0.509280 -0.622420 0.025710 12.067934 8.336640 8.616496 72.156866 -5.291003 -20.859671 26.882518 38.746877 3.020214 1.934705 -0.730740 -0.931460 0.795930 1.066400 0.040350 
-0.404760 17.762890 4.758240 -5.950032 21.365521 -18.467362 -15.043688 12.689650 3.550448 7.584120 -5.864435 -21.176769 -7.521833 14.141255 49.682128 0.259018 10.538021 1.109038 -0.953370 -1.309010 -0.947180 18.435780 -10.296527 3.423293 1.484026 6.692986 -30.752811 1.847114 -8.045546 41.518238 -0.253779 -5.770342 2.505443 -0.631850 1.279230 -0.007000 -4.472860 -1.283994 -8.627526 11.706079 -4.709072 27.115609 -11.290903 -1.481094 -1.432052 0.892770 -3.278524 -13.152490 -9.665363 3.070076 40.787619 7.284300 -6.387320 5.952110 -16.606908 -12.283252 5.738348 -47.398312 -1.719411 -10.330159 -24.338760 -42.278040 4.004146 -4.135810 2.454326 0.745900 0.445640 -0.522400 0.026600 14.342103 14.172111 10.021369 70.396220 -2.748992 -21.622461 25.563060 42.181073 2.591135 1.909121 -0.731677 -0.898300 0.814050 1.009680 0.017020 
-0.398030 17.788490 4.761530 -7.357611 20.930434 -22.877494 -15.029254 12.824845 3.431551 10.347293 -5.536649 -17.968438 -8.300310 15.040641 50.608297 0.250997 10.962799 0.893760 -0.797960 -1.147940 -0.793950 18.436302 -10.190565 3.509768 2.921852 6.940977 -31.127347 1.568078 -6.859079 36.415230 -0.173853 -4.707183 2.798529 -0.535380 1.146470 0.026480 -4.460094 -1.460722 -8.637872 11.843259 -6.105979 29.569756 -11.431127 -1.971945 2.518002 1.311863 -3.126673 -14.489845 -10.484823 4.125525 45.233471 7.789580 -5.272650 0.473110 -19.556654 -19.756361 7.491233 -44.397057 -4.368423 -11.406162 -21.241381 -44.816341 2.558558 -3.978426 2.464312 0.876090 0.343600 -0.391380 0.008140 16.568038 21.029985 11.478832 66.971494 1.209591 -21.745974 22.219308 44.948911 1.414987 1.854724 -0.705269 -0.873380 0.828530 0.967680 -0.038780 
-0.392140 17.787660 4.781600 -7.949448 21.256937 -26.095100 -15.088370 13.033921 3.377103 11.765434 -5.418353 -14.382710 -9.316453 15.843394 50.719694 0.302198 11.207858 0.773087 -0.660470 -0.972470 -0.661850 18.358765 -10.014317 3.604700 3.956583 6.907440 -32.718523 0.108684 -5.272357 30.601954 -0.051084 -3.529832 3.164432 -0.446840 1.027410 0.051300 -4.230548 -1.905518 -8.666278 9.807602 -6.623286 31.378602 -10.455582 -2.463064 6.321811 1.716921 -2.036037 -15.945934 -9.162903 4.320178 48.361036 7.013300 -3.722770 -3.194170 -20.878983 -26.244891 9.105912 -41.250741 -7.992802 -11.806598 -18.486734 -46.197487 1.387616 -3.819039 2.522092 0.924830 0.281760 -0.285580 -0.001010 17.188497 26.417603 12.719448 63.404652 4.446330 -21.787239 21.613166 48.523732 1.038827 1.814631 -0.740046 -0.819190 0.818440 0.900890 -0.068460 
-0.358590 17.773300 4.793910 -9.609996 21.757361 -28.608756 -15.104962 13.156852 3.217552 12.954778 -5.166016 -11.508320 -9.529762 15.820162 49.688207 0.216863 11.210260 0.767576 -0.610110 -0.927200 -0.607770 18.360985 -9.758480 3.821003 5.309458 7.442920 -35.827046 -2.816481 -3.915992 27.246765 0.034641 -2.808173 3.391298 -0.392250 1.031910 0.073050 -4.181231 -2.270574 -8.676430 10.164013 -8.014292 32.273985 -10.131995 -3.632341 9.506618 1.920638 -1.801959 -16.987236 -9.253872 4.715574 49.464320 6.627510 -3.164730 -5.690650 -21.895818 -31.024217 10.201098 -37.781956 -12.188285 -11.583678 -17.388243 -46.771711 1.034819 -3.727697 2.554685 0.967030 0.282650 -0.262110 -0.004260 17.789439 30.380112 13.372697 58.215479 7.377815 -21.192338 21.240225 52.160922 1.176788 1.729189 -0.741996 -0.841220 0.867360 0.907130 -0.088170 
-0.352450 17.773400 4.774940 -11.565123 21.507621 -31.044291 -15.114214 13.126432 3.035998 15.011945 -4.924447 -9.401727 -9.901793 15.947976 48.411888 0.169250 11.137472 0.752032 -0.517430 -0.818630 -0.529440 18.403667 -9.350350 4.226313 6.380643 8.959347 -40.535406 -5.321538 -3.138840 27.391470 0.004896 -2.630478 3.395805 -0.329620 0.964320 0.103710 -4.166384 -2.541853 -8.785516 11.091276 -9.366017 33.954504 -9.721388 -4.556054 12.429722 1.991195 -1.386510 -18.552624 -8.969024 5.117206 50.581574 6.527670 -2.307450 -8.080370 -21.573843 -35.578998 11.582489 -33.511070 -16.775265 -12.766347 -16.344764 -49.732338 0.829127 -3.503071 2.722670 0.984710 0.248270 -0.206920 -0.008040 17.245075 34.160973 13.886495 53.245165 10.421620 -21.421617 20.780643 57.681438 1.319982 1.638833 -0.819486 -0.801700 0.844410 0.869140 -0.101920 
-0.312350 17.757540 4.765120 -13.251683 21.988468 -32.596655 -15.134723 13.040219 2.907570 16.291707 -5.133643 -8.321538 -10.052759 15.987281 47.939572 0.105688 11.209009 0.717501 -0.501110 -0.832850 -0.498700 18.448574 -8.979188 4.557779 7.055062 9.873035 -45.820555 -10.784804 -1.947232 29.387877 -0.054238 -2.919220 3.248691 -0.308480 0.974170 0.132810 -4.159064 -2.817332 -8.885834 12.116096 -10.801822 34.767903 -9.316479 -5.783422 14.844401 2.005857 -1.192675 -19.630493 -8.924846 5.230657 50.278389 5.921560 -2.053280 -8.911200 -20.056031 -38.522199 12.626271 -29.936432 -22.573826 -14.249469 -12.320529 -52.656669 -0.926187 -3.342070 2.836989 1.000090 0.261390 -0.217400 -0.019770 15.601629 36.264168 13.943660 48.924633 13.257009 -21.544835 23.299713 64.837845 3.114312 1.530154 -0.910893 -0.821460 0.846400 0.888840 -0.123590 
-0.261890 17.739350 4.764960 -14.738973 24.228583 -34.231777 -15.173415 13.045500 2.796817 16.402861 -5.752440 -7.846100 -9.140524 15.421320 48.690250 0.028109 11.268496 0.708950 -0.499110 -0.835580 -0.508180 18.459463 -8.813032 4.623312 8.215437 9.470213 -49.620131 -20.641002 0.244270 30.565318 -0.209173 -3.732924 2.953854 -0.274110 1.032360 0.138450 -4.127347 -3.143064 -8.904694 12.440513 -12.270823 35.227566 -8.230175 -7.611654 16.980248 1.601465 -1.533084 -19.865726 -9.673793 5.440374 49.119308 5.767720 -2.207930 -10.567370 -16.649870 -40.275970 12.896478 -26.616657 -28.980818 -14.837563 -2.459743 -53.293421 -5.185944 -3.369124 2.705610 1.008140 0.294370 -0.245480 -0.013080 13.094638 37.029661 13.391053 44.003220 16.735635 -20.625500 28.052032 72.146516 7.010482 1.415829 -0.990140 -0.864010 0.906610 0.919310 -0.124880 
-0.220100 17.773370 4.722370 -15.137218 24.607936 -35.961936 -15.200475 13.025120 2.635598 16.354940 -5.751026 -6.007596 -8.901596 15.110959 48.155269 -0.015599 11.157410 0.717730 -0.428980 -0.731740 -0.467850 18.475907 -8.619685 4.819350 9.493448 10.064166 -52.510403 -27.885319 1.901732 30.542075 -0.411695 -4.520791 2.645879 -0.213070 0.991270 0.171980 -4.087307 -3.306278 -8.982478 12.420373 -13.019041 37.186740 -7.323914 -8.555626 18.987334 1.224717 -1.237935 -20.130096 -9.123602 5.307282 49.452027 5.459030 -1.808670 -13.354260 -12.992771 -42.814566 12.544476 -20.665535 -32.398004 -16.418362 6.376894 -53.886272 -8.730059 -3.414103 2.580694 1.012060 0.282720 -0.202730 -0.019510 10.222328 38.403513 12.743443 37.665131 18.715278 -22.317494 15.623268 75.905874 -0.494480 1.248416 -0.952181 -0.826160 0.897760 0.904280 -0.124720 
